<svg width="126" height="34" viewBox="0 0 63 17" xmlns="http://www.w3.org/2000/svg">
  <g fill="#ffffff" fill-rule="nonzero">
    <polygon points="18 12.485 18 17 0 17 0 0 5.061 0 5.061 12.485"/>
    <path d="M62.991,0 L56.069,0 L50.841,5.265 L45.64,0 L33.537,0 L33.537,8.355 C33.537,10.39 32.904,12.547 28.355,12.547 C23.805,12.547 23.173,10.418 23.173,8.355 L23.173,0 L18,0 L18,8.355 C18,14.199 21.107,17 28.364,17 C35.593,17 38.728,14.171 38.728,8.355 L38.728,0.327 C38.728,0.215 38.858,0.159 38.942,0.233 L47.25,8.374 L38.7,16.748 L45.649,16.748 L50.85,11.483 L56.078,16.748 L63,16.748 L54.478,8.374 L62.991,0 Z"/>
  </g>
</svg>
